<svg width="14" height="16" viewBox="0 0 14 16" fill="none" xmlns="http://www.w3.org/2000/svg">
<path fill-rule="evenodd" clip-rule="evenodd" d="M8.53333 1.33333C8.26667 0.566667 7.53333 0 6.66667 0C5.8 0 5.06666 0.566667 4.8 1.33333H0V16H13.3333V1.33333H8.53333ZM6.66667 1.33333C7.03333 1.33333 7.33333 1.63333 7.33333 2C7.33333 2.36667 7.03333 2.66667 6.66667 2.66667C6.3 2.66667 6 2.36667 6 2C6 1.63333 6.3 1.33333 6.66667 1.33333ZM12 14.6667H1.33333V2.66667H3.33333V3.33333C3.33333 3.7 3.63333 4 4 4H9.33333C9.7 4 10 3.7 10 3.33333V2.66667H12V14.6667ZM10 8H3.33333C2.96667 8 2.66667 8.3 2.66667 8.66667C2.66667 9.03333 2.96667 9.33333 3.33333 9.33333H10C10.3667 9.33333 10.6667 9.03333 10.6667 8.66667C10.6667 8.3 10.3667 8 10 8ZM3.33333 5.33333C2.96667 5.33333 2.66667 5.63333 2.66667 6C2.66667 6.36667 2.96667 6.66667 3.33333 6.66667H10C10.3667 6.66667 10.6667 6.36667 10.6667 6C10.6667 5.63333 10.3667 5.33333 10 5.33333H3.33333Z" fill="#456772"/>
</svg>
