<svg width="128" height="24" viewBox="0 0 128 24" fill="none" xmlns="http://www.w3.org/2000/svg">
<path d="M36 19.6439V5.87342H37.9279L42.8852 15.4734L47.8033 5.87342H49.7508V19.6439H48.0984V8.82424L43.4951 17.6767H42.2557L37.6525 8.84391V19.6439H36Z" fill="#475053"/>
<path d="M52.9707 7.7226C52.6429 7.7226 52.3675 7.61769 52.1445 7.40785C51.9347 7.1849 51.8298 6.90949 51.8298 6.58162C51.8298 6.26687 51.9347 6.00457 52.1445 5.79473C52.3675 5.5849 52.6429 5.47998 52.9707 5.47998C53.2855 5.47998 53.5544 5.5849 53.7773 5.79473C54.0003 6.00457 54.1117 6.26687 54.1117 6.58162C54.1117 6.90949 54.0003 7.1849 53.7773 7.40785C53.5544 7.61769 53.2855 7.7226 52.9707 7.7226ZM52.1445 19.6439V9.88654H53.797V19.6439H52.1445Z" fill="#475053"/>
<path d="M56.084 19.6439V9.88654H57.5791L57.6775 11.6374C57.9922 11.021 58.4447 10.5357 59.0348 10.1816C59.625 9.82752 60.2939 9.65047 61.0414 9.65047C62.1955 9.65047 63.1135 10.0046 63.7955 10.7128C64.4906 11.4078 64.8381 12.4833 64.8381 13.939V19.6439H63.1857V14.116C63.1857 12.0833 62.3463 11.0669 60.6676 11.0669C59.8283 11.0669 59.1266 11.3751 58.5627 11.9915C58.0119 12.5947 57.7365 13.4603 57.7365 14.5882V19.6439H56.084Z" fill="#475053"/>
<path d="M71.1778 19.88C70.2073 19.88 69.3548 19.657 68.6204 19.2111C67.8991 18.7652 67.3351 18.1554 66.9286 17.3816C66.5351 16.6078 66.3384 15.7292 66.3384 14.7456C66.3384 13.7619 66.5417 12.8898 66.9483 12.1292C67.3548 11.3554 67.9188 10.7521 68.6401 10.3193C69.3614 9.87342 70.2138 9.65047 71.1974 9.65047C71.9974 9.65047 72.7056 9.81441 73.322 10.1423C73.9384 10.4701 74.4171 10.9292 74.7581 11.5193V5.47998H76.4106V19.6439H74.9155L74.7581 18.0308C74.4433 18.5029 73.9909 18.9292 73.4007 19.3095C72.8106 19.6898 72.0696 19.88 71.1778 19.88ZM71.3548 18.4439C72.0106 18.4439 72.5876 18.2931 73.086 17.9915C73.5974 17.6767 73.9909 17.2439 74.2663 16.6931C74.5548 16.1423 74.6991 15.4997 74.6991 14.7652C74.6991 14.0308 74.5548 13.3882 74.2663 12.8374C73.9909 12.2865 73.5974 11.8603 73.086 11.5587C72.5876 11.2439 72.0106 11.0865 71.3548 11.0865C70.7122 11.0865 70.1351 11.2439 69.6237 11.5587C69.1253 11.8603 68.7319 12.2865 68.4433 12.8374C68.1679 13.3882 68.0302 14.0308 68.0302 14.7652C68.0302 15.4997 68.1679 16.1423 68.4433 16.6931C68.7319 17.2439 69.1253 17.6767 69.6237 17.9915C70.1351 18.2931 70.7122 18.4439 71.3548 18.4439Z" fill="#475053"/>
<path d="M82.4879 19.6439L77.4518 5.87342H80.1469L84.042 17.0669L87.9567 5.87342H90.6125L85.5764 19.6439H82.4879Z" fill="#475053"/>
<path d="M92.9577 8.37178C92.4987 8.37178 92.1184 8.23408 91.8167 7.95867C91.5282 7.68326 91.384 7.33572 91.384 6.91605C91.384 6.49637 91.5282 6.15539 91.8167 5.89309C92.1184 5.61769 92.4987 5.47998 92.9577 5.47998C93.4168 5.47998 93.7905 5.61769 94.0791 5.89309C94.3807 6.15539 94.5315 6.49637 94.5315 6.91605C94.5315 7.33572 94.3807 7.68326 94.0791 7.95867C93.7905 8.23408 93.4168 8.37178 92.9577 8.37178ZM91.6987 19.6439V9.88654H94.2168V19.6439H91.6987Z" fill="#475053"/>
<path d="M100.602 19.6439C99.5794 19.6439 98.7597 19.3947 98.1433 18.8964C97.527 18.398 97.2188 17.5128 97.2188 16.2406V11.9915H95.5466V9.88654H97.2188L97.5138 7.27014H99.7368V9.88654H102.373V11.9915H99.7368V16.2603C99.7368 16.7324 99.8351 17.0603 100.032 17.2439C100.242 17.4144 100.596 17.4997 101.094 17.4997H102.314V19.6439H100.602Z" fill="#475053"/>
<path d="M107.309 19.88C106.469 19.88 105.781 19.7488 105.243 19.4865C104.705 19.2111 104.305 18.8505 104.043 18.4046C103.781 17.9587 103.65 17.4669 103.65 16.9292C103.65 16.0242 104.004 15.2898 104.712 14.7259C105.42 14.1619 106.482 13.88 107.899 13.88H110.377V13.6439C110.377 12.9751 110.187 12.4833 109.807 12.1685C109.427 11.8538 108.954 11.6964 108.391 11.6964C107.879 11.6964 107.433 11.821 107.053 12.0701C106.673 12.3062 106.436 12.6603 106.345 13.1324H103.886C103.951 12.4242 104.187 11.8078 104.594 11.2833C105.013 10.7587 105.551 10.3587 106.207 10.0833C106.863 9.79473 107.597 9.65047 108.41 9.65047C109.8 9.65047 110.895 9.99801 111.695 10.6931C112.495 11.3882 112.895 12.3718 112.895 13.6439V19.6439H110.751L110.515 18.0701C110.227 18.5947 109.82 19.0275 109.295 19.3685C108.784 19.7095 108.122 19.88 107.309 19.88ZM107.879 17.9128C108.6 17.9128 109.158 17.6767 109.551 17.2046C109.958 16.7324 110.213 16.1488 110.318 15.4538H108.174C107.505 15.4538 107.027 15.5783 106.738 15.8275C106.45 16.0636 106.305 16.3587 106.305 16.7128C106.305 17.0931 106.45 17.3882 106.738 17.598C107.027 17.8078 107.407 17.9128 107.879 17.9128Z" fill="#475053"/>
<path d="M114.708 19.6439V5.47998H117.226V19.6439H114.708Z" fill="#475053"/>
<path d="M123.242 19.88C122.376 19.88 121.616 19.7423 120.96 19.4669C120.304 19.1783 119.779 18.7849 119.386 18.2865C118.993 17.7882 118.757 17.2111 118.678 16.5554H121.216C121.294 16.9357 121.504 17.2636 121.845 17.539C122.199 17.8013 122.652 17.9324 123.202 17.9324C123.753 17.9324 124.153 17.821 124.402 17.598C124.665 17.3751 124.796 17.1193 124.796 16.8308C124.796 16.4111 124.612 16.1292 124.245 15.9849C123.878 15.8275 123.366 15.6767 122.711 15.5324C122.291 15.4406 121.865 15.3292 121.432 15.198C120.999 15.0669 120.599 14.9029 120.232 14.7062C119.878 14.4964 119.589 14.2341 119.366 13.9193C119.143 13.5915 119.032 13.1915 119.032 12.7193C119.032 11.8538 119.373 11.1259 120.055 10.5357C120.75 9.94555 121.72 9.65047 122.966 9.65047C124.12 9.65047 125.038 9.91932 125.72 10.457C126.416 10.9947 126.829 11.7357 126.96 12.68H124.579C124.435 11.9587 123.891 11.598 122.947 11.598C122.475 11.598 122.107 11.6898 121.845 11.8734C121.596 12.057 121.471 12.2865 121.471 12.5619C121.471 12.8505 121.661 13.08 122.042 13.2505C122.422 13.421 122.927 13.5783 123.557 13.7226C124.238 13.88 124.861 14.057 125.425 14.2537C126.002 14.4374 126.461 14.7193 126.802 15.0997C127.143 15.4669 127.314 15.998 127.314 16.6931C127.327 17.2964 127.17 17.8406 126.842 18.3259C126.514 18.8111 126.042 19.1915 125.425 19.4669C124.809 19.7423 124.081 19.88 123.242 19.88Z" fill="#475053"/>
<ellipse opacity="0.6" cx="26.4" cy="12" rx="4.8" ry="7.2" fill="url(#paint0_linear_428_228)"/>
<ellipse opacity="0.6" cx="26.4" cy="12" rx="4.8" ry="7.2" transform="rotate(-180 26.4 12)" fill="url(#paint1_linear_428_228)"/>
<ellipse opacity="0.6" cx="19.2" cy="10.8" rx="4.8" ry="10.8" fill="url(#paint2_linear_428_228)"/>
<ellipse opacity="0.6" cx="19.2" cy="10.8" rx="4.8" ry="10.8" transform="rotate(-180 19.2 10.8)" fill="url(#paint3_linear_428_228)"/>
<ellipse opacity="0.6" cx="12" cy="13.2" rx="4.8" ry="10.8" fill="url(#paint4_linear_428_228)"/>
<ellipse opacity="0.6" cx="12" cy="13.2" rx="4.8" ry="10.8" transform="rotate(-180 12 13.2)" fill="url(#paint5_linear_428_228)"/>
<ellipse opacity="0.6" cx="4.8" cy="12" rx="4.8" ry="7.2" fill="url(#paint6_linear_428_228)"/>
<ellipse opacity="0.6" cx="4.79998" cy="12" rx="4.8" ry="7.2" transform="rotate(-180 4.79998 12)" fill="url(#paint7_linear_428_228)"/>
<defs>
<linearGradient id="paint0_linear_428_228" x1="26.4" y1="4.80002" x2="26.4" y2="19.2" gradientUnits="userSpaceOnUse">
<stop stop-color="#92BE71"/>
<stop offset="1" stop-color="#DAEFED" stop-opacity="0"/>
</linearGradient>
<linearGradient id="paint1_linear_428_228" x1="26.4" y1="4.79998" x2="26.4" y2="19.2" gradientUnits="userSpaceOnUse">
<stop stop-color="#456772" stop-opacity="0.2"/>
<stop offset="1" stop-color="#DAEFED" stop-opacity="0"/>
</linearGradient>
<linearGradient id="paint2_linear_428_228" x1="19.2" y1="0" x2="19.2" y2="21.6" gradientUnits="userSpaceOnUse">
<stop stop-color="#6D9147"/>
<stop offset="1" stop-color="#DAEFED" stop-opacity="0"/>
</linearGradient>
<linearGradient id="paint3_linear_428_228" x1="19.2" y1="4.3869e-05" x2="19.2" y2="21.6" gradientUnits="userSpaceOnUse">
<stop stop-color="#278C79"/>
<stop offset="1" stop-color="#DAEFED" stop-opacity="0"/>
</linearGradient>
<linearGradient id="paint4_linear_428_228" x1="12" y1="2.39996" x2="12" y2="24" gradientUnits="userSpaceOnUse">
<stop stop-color="#278C79"/>
<stop offset="1" stop-color="#DAEFED" stop-opacity="0"/>
</linearGradient>
<linearGradient id="paint5_linear_428_228" x1="12" y1="2.40001" x2="12" y2="24" gradientUnits="userSpaceOnUse">
<stop stop-color="#6D9147"/>
<stop offset="1" stop-color="#DAEFED" stop-opacity="0"/>
</linearGradient>
<linearGradient id="paint6_linear_428_228" x1="4.8" y1="4.80002" x2="4.8" y2="19.2" gradientUnits="userSpaceOnUse">
<stop stop-color="#7C989B" stop-opacity="0.2"/>
<stop offset="1" stop-color="#DAEFED" stop-opacity="0"/>
</linearGradient>
<linearGradient id="paint7_linear_428_228" x1="4.79998" y1="4.79998" x2="4.79998" y2="19.2" gradientUnits="userSpaceOnUse">
<stop stop-color="#6D9147"/>
<stop offset="1" stop-color="#E3E3E3" stop-opacity="0"/>
</linearGradient>
</defs>
</svg>
