<svg width="16" height="16" viewBox="0 0 16 16" fill="none" xmlns="http://www.w3.org/2000/svg">
<path fill-rule="evenodd" clip-rule="evenodd" d="M5.33333 6C4.96667 6 4.66667 6.3 4.66667 6.66667C4.66667 7.03333 4.96667 7.33333 5.33333 7.33333C5.7 7.33333 6 7.03333 6 6.66667C6 6.3 5.7 6 5.33333 6ZM8 6C7.63333 6 7.33333 6.3 7.33333 6.66667C7.33333 7.03333 7.63333 7.33333 8 7.33333C8.36667 7.33333 8.66667 7.03333 8.66667 6.66667C8.66667 6.3 8.36667 6 8 6ZM10.6667 6C10.3 6 10 6.3 10 6.66667C10 7.03333 10.3 7.33333 10.6667 7.33333C11.0333 7.33333 11.3333 7.03333 11.3333 6.66667C11.3333 6.3 11.0333 6 10.6667 6ZM8 0C3.56667 0 0 3 0 6.66667C0 8.33333 0.73335 9.83333 1.93335 11L0.666667 16L5.46667 13C6.26667 13.2333 7.1 13.3333 8 13.3333C12.4333 13.3333 16 10.3333 16 6.66667C16 3 12.4333 0 8 0ZM8 12C7.06667 12 6.16667 11.8333 5.33333 11.5667L2.66667 13.3333L3.60002 10.6667C2.20002 9.7 1.33333 8.26667 1.33333 6.66667C1.33333 3.73333 4.33333 1.33333 8 1.33333C11.6667 1.33333 14.6667 3.73333 14.6667 6.66667C14.6667 9.6 11.6667 12 8 12Z" fill="#456772"/>
</svg>
