<svg width="16" height="16" viewBox="0 0 16 16" fill="none" xmlns="http://www.w3.org/2000/svg">
<path fill-rule="evenodd" clip-rule="evenodd" d="M10.6667 14.6667H12V16H13.3333V13.3333H10.6667V14.6667ZM0 6.66667H2.66667V5.33333H0V6.66667ZM9.33333 12V13.3333H10.6667V12H9.33333ZM9.33333 8V9.33333H10.6667V8H9.33333ZM0 0V1.33333H1.33333V0H0ZM0 16H8V8H0V16ZM1.33333 9.33333H6.66667V14.6667H1.33333V9.33333ZM16 8V6.66667H14.6667V8H16ZM2.66667 13.3333H5.33333V10.6667H2.66667V13.3333ZM9.33333 16H10.6667V14.6667H9.33333V16ZM16 16V13.3333H14.6667V16H16ZM16 10.6667V9.33333H14.6667V10.6667H16ZM5.33333 0H2.66667V1.33333H5.33333V0ZM9.33333 4V6.66667H10.6667V4H9.33333ZM12 9.33333H10.6667V12H13.3333V13.3333H14.6667V10.6667H12V9.33333ZM13.3333 6.66667H10.6667V8H13.3333V6.66667ZM1.33333 1.33333V2.66667H0V4H2.66667V1.33333H1.33333ZM13.3333 9.33333H14.6667V8H13.3333V9.33333ZM16 5.33333V0H13.3333V1.33333H14.6667V4H12V5.33333H13.3333V6.66667H14.6667V5.33333H16ZM12 0H10.6667V1.33333H12V0ZM13.3333 2.66667V1.33333H12V2.66667H13.3333ZM10.6667 2.66667V1.33333H9.33333V0H6.66667V1.33333H8V2.66667H6.66667V5.33333H5.33333V6.66667H8V4H9.33333V2.66667H10.6667ZM4 2.66667V4H2.66667V5.33333H5.33333V2.66667H4ZM6.66667 2.66667V1.33333H5.33333V2.66667H6.66667Z" fill="#456772"/>
</svg>
